<?xml version="1.0" encoding="UTF-8" standalone="no"?>
<svg
   viewBox="0 0 24 24"
   role="img"
   aria-label="Symbols"
   version="1.1"
   id="svg1"
   sodipodi:docname="symbols.svg"
   inkscape:version="1.4.3 (0d15f75, 2025-12-25)"
   xmlns:inkscape="http://www.inkscape.org/namespaces/inkscape"
   xmlns:sodipodi="http://sodipodi.sourceforge.net/DTD/sodipodi-0.dtd"
   xmlns="http://www.w3.org/2000/svg"
   xmlns:svg="http://www.w3.org/2000/svg">
  <defs
     id="defs1" />
  <sodipodi:namedview
     id="namedview1"
     pagecolor="#ffffff"
     bordercolor="#000000"
     borderopacity="0.25"
     inkscape:showpageshadow="2"
     inkscape:pageopacity="0.0"
     inkscape:pagecheckerboard="0"
     inkscape:deskcolor="#d1d1d1"
     inkscape:zoom="36.875"
     inkscape:cx="12"
     inkscape:cy="12"
     inkscape:window-width="1920"
     inkscape:window-height="1129"
     inkscape:window-x="1192"
     inkscape:window-y="708"
     inkscape:window-maximized="1"
     inkscape:current-layer="svg1" />
  <rect
     width="24"
     height="24"
     fill="none"
     id="rect1" />
  <path
     style="font-style:italic;font-size:34.5777px;font-family:Calibri;-inkscape-font-specification:'Calibri Italic';stroke-width:1.74872"
     d="m 16.93795,15.916307 q 0,0.0389 -0.01079,0.12645 -0.01079,0.07782 -0.03239,0.184813 -0.02159,0.106997 -0.05397,0.22372 -0.02159,0.106996 -0.06477,0.213993 -0.03239,0.09727 -0.07556,0.184812 -0.04318,0.08754 -0.09714,0.136177 -0.05398,0.04864 -0.172698,0.09727 -0.11873,0.04864 -0.291428,0.08754 -0.172699,0.03891 -0.37778,0.06809 -0.205078,0.02919 -0.377777,0.02919 -0.593652,0 -0.960637,-0.145905 -0.35619,-0.145904 -0.561269,-0.398804 -0.20508,-0.252902 -0.302222,-0.690614 -0.08635,-0.437714 0,-1.176962 -0.453334,0.661432 -1.036193,1.14778 -0.582856,0.486348 -1.111747,0.758704 -0.518092,0.262625 -1.014601,0.389074 -0.4857154,0.12645 -0.9174614,0.12645 -0.7987309,0 -1.3707949,-0.223719 Q 7.5366722,16.830641 7.191275,16.422108 6.8458779,16.003849 6.683973,15.45914 6.5220681,14.904704 6.5220681,14.184909 q 0,-0.661432 0.1187302,-1.361773 Q 6.7703222,12.122793 7.0185764,11.402999 7.2776243,10.683205 7.698577,10.012045 8.1195297,9.3311593 8.7023873,8.8156303 9.285245,8.2903747 10.09477,7.9791122 q 0.809525,-0.3209896 1.759366,-0.3209896 0.733969,0 1.295239,0.213993 0.561271,0.213993 0.939048,0.6906138 0.388573,0.4668939 0.550477,1.2547771 0.172699,0.7878825 0.07556,1.6438555 0.151111,-0.427987 0.302223,-0.787883 0.161904,-0.359898 0.345397,-0.7781565 0.194286,-0.4182592 0.366984,-0.8754262 0.172699,-0.4668938 0.302222,-0.9337877 0.02159,-0.068089 0.07556,-0.1264504 0.06477,-0.058361 0.161904,-0.09727 0.107937,-0.038908 0.269843,-0.048635 0.172698,-0.019453 0.431745,-0.019453 0.248255,0 0.41016,0.019453 0.172699,0.00973 0.259048,0.048635 0.09714,0.038908 0.11873,0.09727 0.02159,0.058361 0,0.1264504 -0.259047,0.7878834 -0.561271,1.4979507 -0.291429,0.7100677 -0.626032,1.3715007 -0.334603,0.661433 -0.701587,1.27423 -0.356192,0.612799 -0.820319,1.264505 0,0.389079 0,0.525256 0,0.136177 0,0.486347 0,0.350171 0.03239,0.661434 0.04318,0.301535 0.140317,0.486347 0.107937,0.175085 0.237461,0.22372 0.129524,0.0389 0.302222,0.0389 0.183493,0 0.356191,-0.02918 0.183492,-0.0389 0.302222,-0.06809 0.129524,-0.02918 0.226667,-0.05836 0.107936,-0.03891 0.172699,-0.03891 0.11873,0 0.11873,0.19454 z m -3.62667,-3.92969 q 0,-1.138054 -0.140317,-1.673036 Q 13.030645,9.7688723 12.847154,9.5159703 12.663659,9.2533433 12.383026,9.1366201 12.113184,9.0101694 11.746199,9.0101694 q -0.582856,0 -1.057778,0.2529009 Q 10.2135,9.5062443 9.8465152,9.9147765 9.4795309,10.313581 9.1988958,10.838837 8.9290543,11.354366 8.7455619,11.899075 8.5620698,12.443784 8.4649268,12.99822 q -0.086349,0.544711 -0.086349,1.011604 0,0.447441 0.075555,0.826792 0.086349,0.369623 0.2698415,0.622524 0.1942858,0.252901 0.4641274,0.369624 0.2806352,0.106997 0.636826,0.106997 0.4533343,0 0.9498423,-0.233447 0.507302,-0.233447 1.003811,-0.661433 0.507301,-0.437713 0.863492,-0.894879 0.366984,-0.457168 0.518096,-0.67116 0.151111,-0.213993 0.151111,-0.223721 0,-0.01945 0,-1.264504 z"
     id="text1"
     aria-label="α" />
</svg>
