<svg xmlns="http://www.w3.org/2000/svg" viewBox="0 0 24 24">
  <path d="M9 3.75a1 1 0 0 0-.92.61L7.7 5.25H4.75a.75.75 0 0 0 0 1.5h.8l.83 12.26a2 2 0 0 0 2 1.86h7.24a2 2 0 0 0 2-1.86l.83-12.26h.8a.75.75 0 0 0 0-1.5H16.3l-.38-.89a1 1 0 0 0-.92-.61H9zm.34 1.5h5.32l.11.25H9.23l.11-.25zm-1.45 1.5h8.22l-.81 12.16a.5.5 0 0 1-.5.34H9.2a.5.5 0 0 1-.5-.34L7.89 6.75zm2.36 2.1a.75.75 0 0 0-.75.75v6.8a.75.75 0 0 0 1.5 0V9.6a.75.75 0 0 0-.75-.75zm3.5 0a.75.75 0 0 0-.75.75v6.8a.75.75 0 0 0 1.5 0V9.6a.75.75 0 0 0-.75-.75z"/>
</svg>
