<svg xmlns="http://www.w3.org/2000/svg" viewBox="0 0 24 24">
  <path fill="#fbf3df" d="M6 2.5h8l4 4V21a.5.5 0 0 1-.5.5h-11A2.5 2.5 0 0 1 4 19V5A2.5 2.5 0 0 1 6.5 2.5"/>
  <path fill="#ead6a7" d="M14 2.5v4h4z"/>
  <path fill="#c08a1e" d="M9.4 10.2c-.7 0-1 .4-1 1v1.1c0 .5-.2.7-.6.7h-.4v1.2h.4c.4 0 .6.2.6.7V16c0 .7.3 1 1 1h1v-1.2h-.5c-.2 0-.3-.1-.3-.3v-1c0-.5-.2-.8-.6-1 .4-.2.6-.5.6-1v-.9c0-.2.1-.3.3-.3h.5v-1.2zm5.2 0v1.2h.5c.2 0 .3.1.3.3v.9c0 .5.2.8.6 1-.4.2-.6.5-.6 1v1c0 .2-.1.3-.3.3h-.5V17h1c.7 0 1-.4 1-1v-1.1c0-.5.2-.7.6-.7h.4V13h-.4c-.4 0-.6-.2-.6-.7v-1.1c0-.7-.3-1-1-1z"/>
  <path fill="#6b5b31" d="M11.2 12.6h1.2v1.2h-1.2zm2.4 0h1.2v1.2h-1.2z"/>
</svg>
